<svg width="49" height="48" viewBox="0 0 49 48" fill="none" xmlns="http://www.w3.org/2000/svg">
<path d="M24.1897 0.597351C17.7765 0.604363 11.6279 3.05369 7.09307 7.408C2.5582 11.7623 0.00730234 17.666 0 23.8239C0 30.0296 2.51761 35.8611 7.08724 40.2454C9.32743 42.4096 11.9926 44.1254 14.9283 45.2935C17.864 46.4616 21.0119 47.0588 24.1897 47.0505C30.603 47.0435 36.7515 44.5941 41.2864 40.2398C45.8213 35.8855 48.3721 29.9818 48.3794 23.8239C48.3721 17.666 45.8213 11.7623 41.2864 7.408C36.7515 3.05369 30.603 0.604363 24.1897 0.597351ZM24.1897 3.90881C29.6886 3.91494 34.9604 6.01511 38.8487 9.74858C42.737 13.4821 44.9243 18.544 44.9307 23.8239C44.926 28.8313 42.9471 33.6513 39.3919 37.3148C37.045 34.6471 33.9892 32.6399 30.5493 31.5065C31.7435 30.5766 32.7068 29.4027 33.369 28.0703C34.0312 26.7378 34.3757 25.2804 34.3774 23.804C34.3734 22.4985 34.1011 21.2066 33.5761 20.0022C33.0512 18.7979 32.284 17.7049 31.3184 16.7857C30.3528 15.8666 29.2078 15.1394 27.949 14.6458C26.6903 14.1522 25.3425 13.902 23.9828 13.9094C22.6237 13.9133 21.2788 14.1745 20.0249 14.6781C18.7711 15.1818 17.6331 15.9178 16.6759 16.8443C15.7187 17.7707 14.9612 18.8693 14.4468 20.0772C13.9323 21.2851 13.671 22.5786 13.6779 23.8835C13.6779 26.9599 15.1815 29.6786 17.4853 31.4932C14.1153 32.5961 11.1096 34.5361 8.77369 37.1161C5.33882 33.4754 3.4403 28.7363 3.44878 23.8239C3.45517 18.544 5.64242 13.4821 9.53072 9.74858C13.419 6.01511 18.6908 3.91494 24.1897 3.90881ZM24.069 17.2209C27.8523 17.2209 30.9252 20.1747 30.9252 23.8835C30.9208 25.5894 30.2269 27.227 28.9898 28.4513C27.7526 29.6756 26.0688 30.3911 24.2932 30.4468C24.1932 30.4468 24.0966 30.427 23.9966 30.427C23.9104 30.427 23.8276 30.4435 23.7414 30.4468C21.9574 30.3798 20.2704 29.6492 19.0373 28.4095C17.8041 27.1699 17.1214 25.5183 17.1335 23.804C17.1335 20.1747 20.2064 17.2209 24.069 17.2209ZM23.7379 33.7517C23.8207 33.755 23.9035 33.7781 23.9862 33.7781H24.069C24.1449 33.7781 24.207 33.755 24.2828 33.7517C26.6888 33.792 29.0572 34.3314 31.2258 35.3328C33.3944 36.3341 35.3118 37.7739 36.8467 39.5533C33.232 42.2649 28.7768 43.7382 24.1897 43.739C19.4987 43.7481 14.9452 42.2175 11.2844 39.401C12.8233 37.6641 14.7298 36.2619 16.8772 35.2878C19.0245 34.3137 21.3633 33.79 23.7379 33.7517Z" fill="#231F20"/>
</svg>
